<svg preserveAspectRatio="none" overflow="visible" style="display: block;" width="22.586" height="22.609" viewBox="0 0 22.586 22.609" fill="none" xmlns="http://www.w3.org/2000/svg">
<path id="Vector" fill-rule="evenodd" clip-rule="evenodd" d="M18.4333 0C18.9787 0 19.5186 0.107393 20.0225 0.316065C20.5262 0.524853 20.9841 0.830651 21.3697 1.21627C21.7553 1.6019 22.0612 2.05973 22.2699 2.56347C22.4786 3.06733 22.586 3.6073 22.586 4.15268C22.586 9.04362 20.6446 13.7345 17.1884 17.1951C13.7321 20.6558 9.04362 22.6029 4.15268 22.609C3.0513 22.609 1.99502 22.1715 1.21627 21.3928C0.43753 20.614 0 19.5578 0 18.4564C0 17.355 0.43753 16.2987 1.21627 15.52C1.99502 14.7412 3.0513 14.3037 4.15268 14.3037C5.48569 14.3037 6.80578 14.0411 8.03728 13.5309C9.2689 13.0209 10.3879 12.2731 11.3305 11.3305C12.2731 10.3879 13.0208 9.2689 13.5309 8.03729C14.0411 6.80578 14.3037 5.48569 14.3037 4.15268C14.3037 3.6073 14.4111 3.06733 14.6197 2.56347C14.8285 2.05973 15.1343 1.6019 15.52 1.21627C15.9056 0.830651 16.3634 0.524853 16.8672 0.316065C17.371 0.107393 17.911 0 18.4564 0H18.4333Z" fill="white"/>
</svg>
