<svg width="645" height="669" viewBox="0 0 645 669" fill="none" xmlns="http://www.w3.org/2000/svg">
<g clip-path="url(#clip0_266_6011)">
<path d="M-227.993 849.593C-270.927 797.133 -296.687 730.071 -296.687 656.993C-296.687 488.928 -160.442 352.683 7.62314 352.683C175.689 352.683 311.933 488.928 311.933 656.993C311.933 825.059 175.689 961.303 7.62314 961.303C-43.9795 961.303 -92.5823 948.459 -135.163 925.793" stroke="#1D1D1D" stroke-width="5.76761" stroke-linecap="round"/>
<path d="M10.3447 28.9347C9.83836 49.9917 10.1202 874.701 10.3312 1284.88" stroke="#1D1D1D" stroke-width="5.76761" stroke-linecap="round"/>
<path d="M422.32 486.168C426.508 496.332 430.333 506.683 433.778 517.207" stroke="#1D1D1D" stroke-width="5.76761" stroke-linecap="round"/>
<path d="M272.439 1017.75C383.656 936.368 455.888 804.867 455.888 656.495C455.888 619.394 451.371 583.347 442.858 548.876" stroke="#1D1D1D" stroke-width="5.76761" stroke-linecap="round"/>
<path d="M406.916 452.775C332.802 308.132 182.228 209.142 8.53432 209.142C-238.532 209.142 -438.819 409.429 -438.819 656.495C-438.819 903.562 -238.532 1103.85 8.53432 1103.85C49.2918 1103.85 88.7761 1098.4 126.298 1088.19" stroke="#1D1D1D" stroke-width="5.76761" stroke-linecap="round"/>
<path d="M-381.138 284.978C-473.284 381.598 -529.86 512.44 -529.86 656.495C-529.86 953.842 -288.813 1194.89 8.53375 1194.89C305.881 1194.89 546.928 953.842 546.928 656.495C546.928 359.149 305.881 118.101 8.53375 118.101C-86.0202 118.101 -174.881 142.476 -252.109 185.284" stroke="#1D1D1D" stroke-width="5.76761" stroke-linecap="round"/>
<circle cx="7.62256" cy="656.992" r="629.274" stroke="#1D1D1D" stroke-width="5.76761"/>
<path d="M-620.844 656.993C-599.703 656.993 223.407 656.993 635.203 656.993" stroke="#1D1D1D" stroke-width="5.76761" stroke-linecap="round"/>
<path d="M206.759 318.162C218.151 318.228 221.015 321.222 221.015 332.809C221.015 344.527 218.086 347.457 206.367 347.457C194.781 347.457 191.787 344.593 191.721 333.201V332.417C191.786 321.155 194.713 318.227 205.976 318.162H206.759ZM206.111 330.031C204.015 329.163 201.603 329.642 199.999 331.246C198.395 332.85 197.915 335.262 198.783 337.357C199.651 339.453 201.696 340.819 203.964 340.819C207.059 340.816 209.568 338.308 209.572 335.212C209.572 332.944 208.206 330.899 206.111 330.031ZM214.149 325.027H198.586V327.774H211.403V340.591H214.149V325.027ZM203.964 332.351C205.543 332.353 206.823 333.633 206.825 335.212C206.825 336.793 205.544 338.074 203.964 338.074C202.384 338.074 201.103 336.793 201.103 335.212C201.103 333.632 202.384 332.351 203.964 332.351Z" fill="white"/>
<path d="M330.629 482.594L324.798 482.575L321.899 477.517L324.828 472.476L330.659 472.495L333.558 477.553L330.629 482.594Z" fill="white"/>
<path d="M321.415 487.882L315.584 487.864L312.686 482.805L315.614 477.764L321.445 477.783L324.344 482.841L321.415 487.882Z" fill="white"/>
<path d="M330.575 493.196L324.744 493.177L321.845 488.119L324.774 483.078L330.605 483.097L333.503 488.155L330.575 493.196Z" fill="white"/>
<path d="M321.467 477.354L315.636 477.336L312.737 472.277L315.666 467.237L321.497 467.255L324.396 472.313L321.467 477.354Z" fill="white"/>
<path d="M330.622 472.052L324.791 472.034L321.893 466.975L324.821 461.935L330.652 461.953L333.551 467.011L330.622 472.052Z" fill="white"/>
<path d="M327.727 468.154C328.364 468.154 328.88 467.637 328.88 467C328.88 466.363 328.364 465.846 327.727 465.846C327.09 465.846 326.573 466.363 326.573 467C326.573 467.637 327.09 468.154 327.727 468.154Z" fill="white"/>
<path d="M318.568 473.446C319.205 473.446 319.721 472.93 319.721 472.293C319.721 471.656 319.205 471.139 318.568 471.139C317.931 471.139 317.414 471.656 317.414 472.293C317.414 472.93 317.931 473.446 318.568 473.446Z" fill="white"/>
<path d="M318.52 483.98C319.157 483.98 319.673 483.464 319.673 482.827C319.673 482.19 319.157 481.673 318.52 481.673C317.883 481.673 317.366 482.19 317.366 482.827C317.366 483.464 317.883 483.98 318.52 483.98Z" fill="white"/>
<path d="M327.673 489.291C328.31 489.291 328.827 488.775 328.827 488.138C328.827 487.5 328.31 486.984 327.673 486.984C327.036 486.984 326.52 487.5 326.52 488.138C326.52 488.775 327.036 489.291 327.673 489.291Z" fill="white"/>
<path d="M327.17 467.245L319.149 471.84M318.531 472.982L318.562 482.226M319.167 483.211L327.115 487.936" stroke="white" stroke-width="1.4419"/>
<path d="M327.73 478.691C328.367 478.691 328.883 478.174 328.883 477.537C328.883 476.9 328.367 476.384 327.73 476.384C327.093 476.384 326.576 476.9 326.576 477.537C326.576 478.174 327.093 478.691 327.73 478.691Z" fill="white"/>
<path d="M327.7 467.62L327.73 476.865M327.745 478.215L327.776 487.46M327.182 477.897L319.161 482.492M319.197 472.709L327.146 477.434" stroke="white" stroke-width="1.4419"/>
<path d="M249.883 561.416L244.052 561.397L241.153 556.339L244.082 551.298L249.913 551.317L252.812 556.375L249.883 561.416Z" fill="white"/>
<path d="M240.669 566.705L234.838 566.687L231.939 561.629L234.868 556.588L240.699 556.606L243.598 561.665L240.669 566.705Z" fill="white"/>
<path d="M249.828 572.018L243.996 571.999L241.098 566.941L244.026 561.9L249.858 561.919L252.756 566.977L249.828 572.018Z" fill="white"/>
<path d="M240.721 556.178L234.89 556.16L231.991 551.101L234.92 546.06L240.751 546.079L243.65 551.137L240.721 556.178Z" fill="white"/>
<path d="M249.876 550.875L244.045 550.857L241.146 545.799L244.075 540.758L249.906 540.776L252.805 545.835L249.876 550.875Z" fill="white"/>
<path d="M246.981 546.977C247.618 546.977 248.134 546.46 248.134 545.823C248.134 545.186 247.618 544.669 246.981 544.669C246.344 544.669 245.827 545.186 245.827 545.823C245.827 546.46 246.344 546.977 246.981 546.977Z" fill="white"/>
<path d="M237.822 552.27C238.46 552.27 238.976 551.753 238.976 551.116C238.976 550.479 238.46 549.963 237.822 549.963C237.185 549.963 236.669 550.479 236.669 551.116C236.669 551.753 237.185 552.27 237.822 552.27Z" fill="white"/>
<path d="M237.774 562.802C238.411 562.802 238.927 562.286 238.927 561.648C238.927 561.011 238.411 560.495 237.774 560.495C237.137 560.495 236.62 561.011 236.62 561.648C236.62 562.286 237.137 562.802 237.774 562.802Z" fill="white"/>
<path d="M246.927 568.114C247.564 568.114 248.08 567.598 248.08 566.961C248.08 566.324 247.564 565.807 246.927 565.807C246.29 565.807 245.773 566.324 245.773 566.961C245.773 567.598 246.29 568.114 246.927 568.114Z" fill="white"/>
<path d="M246.424 546.068L238.403 550.663M237.785 551.805L237.815 561.05M238.421 562.034L246.369 566.759" stroke="white" stroke-width="1.4419"/>
<path d="M246.984 557.514C247.621 557.514 248.137 556.998 248.137 556.36C248.137 555.723 247.621 555.207 246.984 555.207C246.347 555.207 245.83 555.723 245.83 556.36C245.83 556.998 246.347 557.514 246.984 557.514Z" fill="white"/>
<path d="M246.954 546.444L246.984 555.688M246.999 557.039L247.029 566.284M246.436 556.721L238.415 561.316M238.451 551.533L246.399 556.258" stroke="white" stroke-width="1.4419"/>
<path d="M267.185 628.707L261.354 628.689L258.455 623.631L261.384 618.59L267.215 618.608L270.114 623.666L267.185 628.707Z" fill="white"/>
<path d="M257.972 633.995L252.141 633.977L249.242 628.919L252.171 623.878L258.002 623.896L260.901 628.955L257.972 633.995Z" fill="white"/>
<path d="M267.131 639.309L261.3 639.291L258.401 634.233L261.33 629.192L267.161 629.21L270.06 634.268L267.131 639.309Z" fill="white"/>
<path d="M258.024 623.467L252.193 623.449L249.294 618.391L252.223 613.35L258.054 613.368L260.953 618.427L258.024 623.467Z" fill="white"/>
<path d="M267.179 618.165L261.348 618.147L258.449 613.089L261.378 608.048L267.209 608.066L270.108 613.125L267.179 618.165Z" fill="white"/>
<path d="M264.283 614.267C264.92 614.267 265.437 613.75 265.437 613.113C265.437 612.476 264.92 611.96 264.283 611.96C263.646 611.96 263.13 612.476 263.13 613.113C263.13 613.75 263.646 614.267 264.283 614.267Z" fill="white"/>
<path d="M255.124 619.56C255.761 619.56 256.278 619.043 256.278 618.406C256.278 617.769 255.761 617.252 255.124 617.252C254.487 617.252 253.971 617.769 253.971 618.406C253.971 619.043 254.487 619.56 255.124 619.56Z" fill="white"/>
<path d="M255.076 630.094C255.713 630.094 256.23 629.577 256.23 628.94C256.23 628.303 255.713 627.787 255.076 627.787C254.439 627.787 253.923 628.303 253.923 628.94C253.923 629.577 254.439 630.094 255.076 630.094Z" fill="white"/>
<path d="M264.23 635.404C264.867 635.404 265.383 634.888 265.383 634.251C265.383 633.614 264.867 633.097 264.23 633.097C263.593 633.097 263.076 633.614 263.076 634.251C263.076 634.888 263.593 635.404 264.23 635.404Z" fill="white"/>
<path d="M263.727 613.358L255.706 617.953M255.088 619.095L255.118 628.34M255.724 629.324L263.672 634.049" stroke="white" stroke-width="1.4419"/>
<path d="M264.286 624.804C264.923 624.804 265.44 624.288 265.44 623.651C265.44 623.013 264.923 622.497 264.286 622.497C263.649 622.497 263.133 623.013 263.133 623.651C263.133 624.288 263.649 624.804 264.286 624.804Z" fill="white"/>
<path d="M264.256 613.733L264.287 622.978M264.302 624.329L264.332 633.573M263.739 624.011L255.718 628.606M255.754 618.822L263.702 623.547" stroke="white" stroke-width="1.4419"/>
<path d="M183.714 493.211H177.381V495.246H181.543C181.814 495.246 181.995 495.472 181.995 495.699V499.272H181.09C180.819 499.272 180.638 499.046 180.638 498.82V496.241H178.874C177.969 496.241 177.245 496.965 177.245 497.87V499.679C177.245 500.584 177.969 501.308 178.874 501.308H185.342V494.839C185.342 493.934 184.619 493.211 183.714 493.211ZM191.449 499.272H190.545C190.273 499.272 190.092 499.046 190.092 498.82V493.211H188.328C187.423 493.211 186.699 493.934 186.699 494.839V499.679C186.699 500.584 187.423 501.308 188.328 501.308H194.797V489.818H191.404L191.449 499.272ZM200.904 499.272H199.999C199.728 499.272 199.547 499.046 199.547 498.82V493.211H196.154V499.679C196.154 500.584 196.878 501.308 197.782 501.308H200.904V502.303H196.29V504.655H202.668C203.573 504.655 204.296 503.932 204.296 503.027V493.211H200.904V499.272ZM212.122 493.211H205.608V499.679C205.608 500.584 206.332 501.308 207.237 501.308H213.615V499.272H209.453C209.182 499.272 209.001 499.046 209.001 498.82V495.246H209.906C210.177 495.246 210.358 495.472 210.358 495.699V498.277H212.122C213.027 498.277 213.751 497.553 213.751 496.649V494.839C213.751 493.934 213.027 493.211 212.122 493.211ZM221.577 493.211H215.108V501.308H218.501V495.246H219.405C219.677 495.246 219.858 495.472 219.858 495.699V501.308H223.25V494.839C223.205 493.934 222.481 493.211 221.577 493.211Z" fill="white"/>
<mask id="mask0_266_6011" style="mask-type:luminance" maskUnits="userSpaceOnUse" x="262" y="373" width="38" height="38">
<path d="M299.519 373.696H262.606V410.608H299.519V373.696Z" fill="white"/>
</mask>
<g mask="url(#mask0_266_6011)">
<mask id="mask1_266_6011" style="mask-type:luminance" maskUnits="userSpaceOnUse" x="262" y="373" width="38" height="38">
<path d="M262.606 373.696H299.519V410.608H262.606V373.696Z" fill="white"/>
</mask>
<g mask="url(#mask1_266_6011)">
<path fill-rule="evenodd" clip-rule="evenodd" d="M288.249 379.071C288.638 378.687 289.099 378.383 289.605 378.178C290.112 377.972 290.654 377.868 291.2 377.873C291.747 377.877 292.287 377.989 292.79 378.203C293.294 378.416 293.75 378.727 294.132 379.117C297.562 382.589 299.485 387.272 299.485 392.152C299.485 393.253 299.047 394.31 298.268 395.088C297.49 395.867 296.433 396.305 295.332 396.305C294.231 396.305 293.174 395.867 292.396 395.088C291.617 394.31 291.179 393.253 291.179 392.152C291.179 389.383 290.049 386.834 288.203 384.954C287.818 384.566 287.514 384.106 287.307 383.6C287.101 383.094 286.996 382.552 286.999 382.005C287.002 381.459 287.113 380.918 287.326 380.415C287.539 379.911 287.848 379.455 288.238 379.071H288.249Z" fill="white"/>
<path fill-rule="evenodd" clip-rule="evenodd" d="M276.91 377.849C276.91 376.747 277.348 375.691 278.126 374.912C278.905 374.134 279.961 373.696 281.063 373.696C286.138 373.696 290.752 375.772 294.086 379.071C294.871 379.845 295.316 380.9 295.323 382.002C295.331 383.104 294.9 384.164 294.126 384.949C293.743 385.337 293.287 385.646 292.784 385.859C292.282 386.071 291.742 386.182 291.196 386.186C290.094 386.194 289.034 385.763 288.249 384.989C286.341 383.085 283.758 382.012 281.063 382.001C279.961 382.001 278.905 381.564 278.126 380.785C277.348 380.006 276.91 378.95 276.91 377.849Z" fill="white"/>
<path fill-rule="evenodd" clip-rule="evenodd" d="M262.606 392.152C262.606 387.257 264.551 382.563 268.012 379.101C271.473 375.64 276.168 373.696 281.063 373.696C282.164 373.696 283.22 374.133 283.999 374.912C284.778 375.691 285.215 376.747 285.215 377.848C285.215 378.95 284.778 380.006 283.999 380.785C283.22 381.564 282.164 382.001 281.063 382.001C279.052 382 277.087 382.596 275.415 383.713C273.744 384.831 272.442 386.42 271.674 388.278C270.907 390.136 270.709 392.181 271.105 394.152C271.501 396.123 272.474 397.932 273.899 399.35C274.673 400.135 275.104 401.195 275.096 402.297C275.089 403.399 274.644 404.453 273.859 405.227C273.074 406.001 272.014 406.432 270.912 406.424C269.81 406.417 268.756 405.972 267.982 405.187C264.544 401.719 262.613 397.035 262.606 392.152Z" fill="white"/>
<path fill-rule="evenodd" clip-rule="evenodd" d="M267.982 399.35C268.365 398.961 268.822 398.651 269.325 398.439C269.829 398.226 270.369 398.115 270.916 398.112C271.462 398.109 272.004 398.213 272.51 398.42C273.016 398.627 273.476 398.931 273.865 399.316C275.773 401.22 278.355 402.293 281.051 402.304C282.152 402.304 283.209 402.741 283.987 403.52C284.766 404.299 285.204 405.355 285.204 406.456C285.204 407.558 284.766 408.614 283.987 409.393C283.209 410.171 282.152 410.609 281.051 410.609C275.975 410.609 271.361 408.533 268.016 405.233C267.627 404.85 267.317 404.393 267.104 403.89C266.892 403.386 266.781 402.846 266.777 402.299C266.774 401.753 266.879 401.211 267.086 400.705C267.292 400.199 267.597 399.739 267.982 399.35Z" fill="white"/>
<path fill-rule="evenodd" clip-rule="evenodd" d="M295.343 388C295.889 388 296.429 388.107 296.933 388.316C297.436 388.524 297.894 388.83 298.28 389.216C298.665 389.601 298.971 390.059 299.18 390.563C299.389 391.067 299.496 391.607 299.496 392.152C299.496 397.043 297.555 401.734 294.099 405.195C290.642 408.655 285.954 410.603 281.063 410.609C279.961 410.609 278.905 410.171 278.126 409.392C277.348 408.614 276.91 407.557 276.91 406.456C276.91 405.355 277.348 404.298 278.126 403.52C278.905 402.741 279.961 402.303 281.063 402.303C282.396 402.303 283.716 402.041 284.947 401.531C286.179 401.02 287.298 400.273 288.241 399.33C289.183 398.388 289.931 397.268 290.441 396.037C290.951 394.805 291.214 393.485 291.214 392.152C291.214 391.607 291.321 391.067 291.53 390.563C291.739 390.059 292.044 389.601 292.43 389.216C292.816 388.83 293.274 388.524 293.777 388.316C294.281 388.107 294.821 388 295.367 388H295.343Z" fill="white"/>
<path fill-rule="evenodd" clip-rule="evenodd" d="M295.343 388C295.888 388 296.428 388.107 296.932 388.316C297.436 388.524 297.894 388.83 298.28 389.216C298.665 389.601 298.971 390.059 299.18 390.563C299.388 391.067 299.496 391.607 299.496 392.152V406.456C299.496 407.557 299.058 408.614 298.28 409.392C297.501 410.171 296.444 410.609 295.343 410.609C294.242 410.609 293.185 410.171 292.407 409.392C291.628 408.614 291.19 407.557 291.19 406.456V392.152C291.19 391.051 291.628 389.995 292.407 389.216C293.185 388.437 294.242 388 295.343 388Z" fill="white"/>
<mask id="mask2_266_6011" style="mask-type:luminance" maskUnits="userSpaceOnUse" x="291" y="387" width="9" height="10">
<path d="M291.214 387.539H299.519V396.767H291.214V387.539Z" fill="white"/>
</mask>
<g mask="url(#mask2_266_6011)">
<path fill-rule="evenodd" clip-rule="evenodd" d="M288.249 379.072C288.638 378.687 289.099 378.384 289.605 378.178C290.112 377.973 290.654 377.869 291.2 377.873C291.747 377.877 292.287 377.99 292.79 378.203C293.294 378.417 293.75 378.727 294.132 379.118C297.562 382.589 299.485 387.273 299.485 392.152C299.485 393.254 299.047 394.31 298.268 395.089C297.49 395.868 296.433 396.305 295.332 396.305C294.231 396.305 293.174 395.868 292.396 395.089C291.617 394.31 291.179 393.254 291.179 392.152C291.179 389.384 290.049 386.835 288.203 384.954C287.818 384.566 287.514 384.106 287.307 383.6C287.101 383.094 286.996 382.552 286.999 382.006C287.002 381.459 287.113 380.919 287.326 380.415C287.539 379.912 287.848 379.455 288.238 379.072H288.249Z" fill="white"/>
</g>
</g>
</g>
<path d="M73.9807 412.532L80.5686 415.813V415.82L84.0149 419.856V438.367L80.5686 442.404L73.9853 445.696L73.9799 445.688L73.9807 445.696H64.6207L64.6203 445.688L64.6161 445.696L58.0327 442.404L54.5869 438.366V419.856L58.0323 415.82L58.0327 415.813L64.6207 412.532H73.9807Z" fill="white"/>
<path d="M145.115 429.833L151.703 433.114V433.121L155.15 437.158V455.669L151.703 459.706L145.12 462.997L145.115 462.99L145.115 462.998H135.755L135.755 462.99L135.751 462.997L129.168 459.706L125.722 455.668V437.158L129.167 433.121L129.168 433.114L135.755 429.833H145.115Z" fill="white"/>
<path d="M51.7874 506.644C56.9698 509.651 63.3623 511.472 69.9748 511.472C74.4361 511.472 79.3375 510.543 83.8477 508.636C84.5199 508.331 85.0944 509.076 84.4343 509.565C80.4131 512.535 74.5706 514.112 69.547 514.112C62.5067 514.112 56.1631 511.509 51.3718 507.182C50.9929 506.84 51.3351 506.375 51.7874 506.644ZM87.8201 506.338C88.2601 506.889 87.6978 510.665 85.5466 512.474C85.2166 512.755 84.8988 512.609 85.0455 512.242C85.5344 511.032 86.6222 508.306 86.1089 507.659C85.5955 506.999 82.7109 507.341 81.4031 507.5C81.012 507.549 80.9509 507.206 81.3053 506.95C83.6032 505.336 87.38 505.801 87.8201 506.338ZM82.5276 492.136C82.7965 492.136 83.0776 492.148 83.3465 492.185C83.6276 492.221 83.8843 492.27 84.141 492.319C84.3855 492.38 84.6177 492.441 84.8377 492.515C85.0577 492.588 85.2288 492.661 85.3511 492.735C85.5222 492.832 85.6444 492.93 85.7177 493.04C85.7911 493.138 85.8277 493.272 85.8277 493.443V494.018C85.8277 494.275 85.73 494.409 85.5466 494.409C85.4488 494.409 85.2899 494.36 85.0822 494.262C84.3855 493.945 83.6032 493.786 82.7354 493.786C82.0387 493.786 81.4887 493.896 81.1098 494.128C80.7309 494.36 80.5353 494.715 80.5353 495.216C80.5353 495.558 80.6575 495.851 80.902 496.084C81.1464 496.316 81.5987 496.548 82.2465 496.756L83.9821 497.306C84.8621 497.587 85.4977 497.978 85.8766 498.479C86.2555 498.98 86.4389 499.555 86.4389 500.19C86.4389 500.716 86.3289 501.193 86.1211 501.608C85.9011 502.024 85.6077 502.391 85.2288 502.684C84.8499 502.989 84.3977 503.209 83.8721 503.368C83.3221 503.539 82.7476 503.625 82.1242 503.625C81.4887 503.625 80.8531 503.552 80.2419 503.405C79.6308 503.258 79.1541 503.099 78.8363 502.916C78.6408 502.806 78.5063 502.684 78.4574 502.574C78.4085 502.464 78.3841 502.342 78.3841 502.232V501.608C78.3841 501.352 78.4819 501.229 78.6652 501.229C78.7385 501.229 78.8119 501.242 78.8852 501.266C78.9586 501.29 79.0686 501.339 79.1908 501.388C79.6064 501.572 80.0586 501.718 80.5353 501.816C81.0242 501.914 81.5009 501.963 81.9898 501.963C82.7598 501.963 83.3587 501.828 83.7743 501.559C84.1899 501.29 84.4099 500.899 84.4099 500.398C84.4099 500.056 84.2999 499.775 84.0799 499.543C83.8599 499.31 83.4443 499.103 82.8454 498.907L81.0731 498.357C80.1808 498.076 79.5208 497.66 79.1174 497.11C78.7141 496.573 78.5063 495.974 78.5063 495.338C78.5063 494.825 78.6163 494.372 78.8363 493.981C79.0563 493.59 79.3497 493.248 79.7164 492.979C80.083 492.698 80.4986 492.49 80.9875 492.343C81.4764 492.197 81.9898 492.136 82.5276 492.136ZM57.3243 492.16C58.7788 492.16 59.8422 492.49 60.5266 493.15C61.1989 493.81 61.5411 494.812 61.5411 496.157V500.117H61.5656C61.5656 500.569 61.6145 500.936 61.7 501.205C61.7978 501.474 61.92 501.767 62.0912 502.085C62.1523 502.183 62.1767 502.281 62.1767 502.366C62.1767 502.488 62.1034 502.611 61.9445 502.733L61.1744 503.246C61.0644 503.319 60.9544 503.356 60.8567 503.356C60.7344 503.356 60.6122 503.295 60.49 503.185C60.3189 503.002 60.1722 502.806 60.0499 502.611C59.9277 502.403 59.8055 502.171 59.671 501.889C58.7177 503.014 57.5198 503.576 56.0776 503.576C55.0508 503.576 54.2319 503.283 53.633 502.696C53.0341 502.109 52.7285 501.327 52.7285 500.349C52.7285 499.31 53.0952 498.467 53.8408 497.831C54.5864 497.196 55.5764 496.878 56.8354 496.878C57.2509 496.878 57.6787 496.915 58.131 496.976C58.5832 497.037 59.0477 497.135 59.5366 497.245V496.353C59.5366 495.424 59.341 494.776 58.9621 494.397C58.571 494.018 57.911 493.835 56.9698 493.835C56.542 493.835 56.102 493.884 55.6498 493.994C55.1975 494.104 54.7575 494.238 54.3297 494.409C54.1341 494.495 53.9875 494.544 53.9019 494.568C53.8163 494.592 53.7552 494.605 53.7063 494.605C53.5352 494.605 53.4497 494.482 53.4497 494.226V493.627C53.4497 493.431 53.4741 493.285 53.5352 493.199C53.5963 493.113 53.7063 493.028 53.8775 492.942C54.3053 492.722 54.8186 492.539 55.4175 492.392C56.0164 492.233 56.652 492.16 57.3243 492.16ZM64.2057 492.453C64.4379 492.453 64.5968 492.49 64.6824 492.576C64.7802 492.649 64.8535 492.82 64.9268 493.052L66.9803 501.144L68.887 493.052C68.9481 492.808 69.0215 492.649 69.1192 492.576C69.217 492.502 69.3881 492.453 69.6081 492.453H70.586C70.8182 492.453 70.9771 492.49 71.0749 492.576C71.1727 492.649 71.2582 492.82 71.3071 493.052L73.2383 501.242L75.3528 493.052C75.4262 492.808 75.5117 492.649 75.5973 492.576C75.6951 492.502 75.854 492.453 76.074 492.453H77.2107C77.4063 492.453 77.5163 492.551 77.5163 492.759C77.5163 492.82 77.504 492.881 77.4918 492.955C77.4796 493.028 77.4552 493.126 77.4063 493.26L74.4606 502.708C74.3872 502.953 74.3017 503.112 74.2039 503.185C74.1061 503.258 73.9472 503.307 73.7394 503.307H72.6883C72.456 503.307 72.2972 503.271 72.1994 503.185C72.1016 503.099 72.016 502.941 71.9671 502.696L70.0726 494.812L68.1903 502.684C68.1292 502.928 68.0559 503.087 67.9581 503.173C67.8603 503.258 67.6892 503.295 67.4692 503.295H66.418C66.198 503.295 66.0513 503.258 65.9535 503.173C65.8558 503.099 65.7702 502.928 65.6969 502.696L62.8245 493.248C62.7512 493.003 62.7145 492.845 62.7145 492.759C62.7145 492.563 62.8123 492.453 63.0079 492.453H64.2057ZM57.2876 498.333C56.4687 498.333 55.8698 498.491 55.4664 498.821C55.0631 499.152 54.8675 499.616 54.8675 500.227C54.8675 500.802 55.0142 501.229 55.3197 501.523C55.6131 501.828 56.0409 501.975 56.6031 501.975C57.0065 501.975 57.4221 501.902 57.8621 501.755C58.3021 501.608 58.6932 501.339 59.0232 500.973C59.2188 500.74 59.3655 500.484 59.4388 500.19C59.5121 499.897 59.561 499.543 59.561 499.127V498.614C59.2066 498.528 58.8277 498.455 58.4365 498.406C58.0454 498.357 57.6665 498.333 57.2876 498.333Z" fill="white"/>
<path d="M117.152 539.328C122.334 542.335 128.727 544.156 135.339 544.156C139.8 544.156 144.702 543.227 149.212 541.32C149.884 541.015 150.459 541.76 149.799 542.249C145.777 545.219 139.935 546.796 134.911 546.796C127.871 546.796 121.527 544.192 116.736 539.866C116.357 539.523 116.699 539.059 117.152 539.328ZM153.184 539.022C153.624 539.572 153.062 543.349 150.911 545.158C150.581 545.439 150.263 545.292 150.41 544.926C150.899 543.716 151.986 540.99 151.473 540.342C150.96 539.682 148.075 540.024 146.767 540.183C146.376 540.232 146.315 539.89 146.67 539.633C148.967 538.02 152.744 538.484 153.184 539.022ZM147.892 524.819C148.161 524.819 148.442 524.832 148.711 524.868C148.992 524.905 149.249 524.954 149.505 525.003C149.75 525.064 149.982 525.125 150.202 525.198C150.422 525.272 150.593 525.345 150.715 525.418C150.886 525.516 151.009 525.614 151.082 525.724C151.155 525.822 151.192 525.956 151.192 526.127V526.702C151.192 526.958 151.094 527.093 150.911 527.093C150.813 527.093 150.654 527.044 150.446 526.946C149.75 526.628 148.967 526.469 148.1 526.469C147.403 526.469 146.853 526.579 146.474 526.812C146.095 527.044 145.9 527.398 145.9 527.899C145.9 528.242 146.022 528.535 146.266 528.767C146.511 529 146.963 529.232 147.611 529.44L149.346 529.99C150.226 530.271 150.862 530.662 151.241 531.163C151.62 531.664 151.803 532.239 151.803 532.874C151.803 533.4 151.693 533.876 151.485 534.292C151.265 534.708 150.972 535.074 150.593 535.368C150.214 535.673 149.762 535.893 149.236 536.052C148.686 536.223 148.112 536.309 147.489 536.309C146.853 536.309 146.217 536.235 145.606 536.089C144.995 535.942 144.518 535.783 144.201 535.6C144.005 535.49 143.871 535.368 143.822 535.258C143.773 535.148 143.748 535.025 143.748 534.915V534.292C143.748 534.035 143.846 533.913 144.029 533.913C144.103 533.913 144.176 533.925 144.249 533.95C144.323 533.974 144.433 534.023 144.555 534.072C144.971 534.255 145.423 534.402 145.9 534.5C146.388 534.598 146.865 534.646 147.354 534.646C148.124 534.646 148.723 534.512 149.139 534.243C149.554 533.974 149.774 533.583 149.774 533.082C149.774 532.74 149.664 532.459 149.444 532.226C149.224 531.994 148.809 531.786 148.21 531.591L146.437 531.041C145.545 530.76 144.885 530.344 144.482 529.794C144.078 529.256 143.871 528.657 143.871 528.022C143.871 527.508 143.981 527.056 144.201 526.665C144.421 526.274 144.714 525.932 145.081 525.663C145.447 525.382 145.863 525.174 146.352 525.027C146.841 524.88 147.354 524.819 147.892 524.819ZM122.689 524.844C124.143 524.844 125.206 525.174 125.891 525.834C126.563 526.494 126.905 527.496 126.905 528.841V532.801H126.93C126.93 533.253 126.979 533.62 127.064 533.889C127.162 534.158 127.284 534.451 127.455 534.769C127.517 534.866 127.541 534.964 127.541 535.05C127.541 535.172 127.468 535.294 127.309 535.416L126.539 535.93C126.429 536.003 126.319 536.04 126.221 536.04C126.099 536.04 125.976 535.979 125.854 535.869C125.683 535.685 125.536 535.49 125.414 535.294C125.292 535.086 125.17 534.854 125.035 534.573C124.082 535.698 122.884 536.26 121.442 536.26C120.415 536.26 119.596 535.967 118.997 535.38C118.398 534.793 118.093 534.011 118.093 533.033C118.093 531.994 118.459 531.151 119.205 530.515C119.951 529.88 120.941 529.562 122.2 529.562C122.615 529.562 123.043 529.598 123.495 529.66C123.947 529.721 124.412 529.818 124.901 529.928V529.036C124.901 528.107 124.705 527.459 124.326 527.081C123.935 526.702 123.275 526.518 122.334 526.518C121.906 526.518 121.466 526.567 121.014 526.677C120.562 526.787 120.122 526.922 119.694 527.093C119.498 527.178 119.352 527.227 119.266 527.252C119.181 527.276 119.119 527.288 119.071 527.288C118.899 527.288 118.814 527.166 118.814 526.909V526.311C118.814 526.115 118.838 525.968 118.899 525.883C118.961 525.797 119.071 525.712 119.242 525.626C119.67 525.406 120.183 525.223 120.782 525.076C121.381 524.917 122.016 524.844 122.689 524.844ZM129.57 525.137C129.802 525.137 129.961 525.174 130.047 525.259C130.144 525.333 130.218 525.504 130.291 525.736L132.345 533.828L134.251 525.736C134.312 525.492 134.386 525.333 134.483 525.259C134.581 525.186 134.752 525.137 134.972 525.137H135.95C136.182 525.137 136.341 525.174 136.439 525.259C136.537 525.333 136.622 525.504 136.671 525.736L138.603 533.925L140.717 525.736C140.79 525.492 140.876 525.333 140.962 525.259C141.059 525.186 141.218 525.137 141.438 525.137H142.575C142.771 525.137 142.881 525.235 142.881 525.443C142.881 525.504 142.868 525.565 142.856 525.638C142.844 525.712 142.819 525.809 142.771 525.944L139.825 535.392C139.752 535.637 139.666 535.795 139.568 535.869C139.47 535.942 139.311 535.991 139.104 535.991H138.053C137.82 535.991 137.661 535.954 137.564 535.869C137.466 535.783 137.38 535.624 137.331 535.38L135.437 527.496L133.555 535.368C133.493 535.612 133.42 535.771 133.322 535.857C133.225 535.942 133.053 535.979 132.833 535.979H131.782C131.562 535.979 131.416 535.942 131.318 535.857C131.22 535.783 131.134 535.612 131.061 535.38L128.189 525.932C128.115 525.687 128.079 525.528 128.079 525.443C128.079 525.247 128.177 525.137 128.372 525.137H129.57ZM122.652 531.016C121.833 531.016 121.234 531.175 120.831 531.505C120.427 531.835 120.232 532.3 120.232 532.911C120.232 533.485 120.378 533.913 120.684 534.206C120.977 534.512 121.405 534.659 121.967 534.659C122.371 534.659 122.786 534.585 123.226 534.439C123.666 534.292 124.057 534.023 124.387 533.656C124.583 533.424 124.73 533.168 124.803 532.874C124.876 532.581 124.925 532.226 124.925 531.811V531.297C124.571 531.212 124.192 531.139 123.801 531.09C123.41 531.041 123.031 531.016 122.652 531.016Z" fill="white"/>
<path d="M165.216 604.693C170.399 607.7 176.791 609.521 183.404 609.521C187.865 609.521 192.766 608.592 197.276 606.685C197.949 606.38 198.523 607.125 197.863 607.614C193.842 610.584 187.999 612.161 182.976 612.161C175.935 612.161 169.592 609.558 164.801 605.231C164.422 604.889 164.764 604.424 165.216 604.693ZM201.249 604.387C201.689 604.937 201.127 608.714 198.975 610.523C198.645 610.804 198.328 610.658 198.474 610.291C198.963 609.081 200.051 606.355 199.538 605.707C199.024 605.047 196.14 605.39 194.832 605.549C194.441 605.597 194.38 605.255 194.734 604.999C197.032 603.385 200.809 603.85 201.249 604.387ZM195.956 590.185C196.225 590.185 196.506 590.197 196.775 590.233C197.056 590.27 197.313 590.319 197.57 590.368C197.814 590.429 198.046 590.49 198.266 590.563C198.486 590.637 198.658 590.71 198.78 590.783C198.951 590.881 199.073 590.979 199.146 591.089C199.22 591.187 199.256 591.321 199.256 591.492V592.067C199.256 592.324 199.159 592.458 198.975 592.458C198.878 592.458 198.719 592.409 198.511 592.311C197.814 591.994 197.032 591.835 196.164 591.835C195.467 591.835 194.917 591.945 194.538 592.177C194.16 592.409 193.964 592.764 193.964 593.265C193.964 593.607 194.086 593.9 194.331 594.133C194.575 594.365 195.027 594.597 195.675 594.805L197.411 595.355C198.291 595.636 198.926 596.027 199.305 596.528C199.684 597.029 199.868 597.604 199.868 598.239C199.868 598.765 199.758 599.242 199.55 599.657C199.33 600.073 199.036 600.439 198.658 600.733C198.279 601.038 197.826 601.258 197.301 601.417C196.751 601.588 196.176 601.674 195.553 601.674C194.917 601.674 194.282 601.601 193.671 601.454C193.06 601.307 192.583 601.148 192.265 600.965C192.069 600.855 191.935 600.733 191.886 600.623C191.837 600.513 191.813 600.391 191.813 600.281V599.657C191.813 599.401 191.911 599.278 192.094 599.278C192.167 599.278 192.241 599.291 192.314 599.315C192.387 599.339 192.497 599.388 192.619 599.437C193.035 599.621 193.487 599.767 193.964 599.865C194.453 599.963 194.93 600.012 195.419 600.012C196.189 600.012 196.787 599.877 197.203 599.608C197.619 599.339 197.839 598.948 197.839 598.447C197.839 598.105 197.729 597.824 197.509 597.592C197.289 597.359 196.873 597.152 196.274 596.956L194.502 596.406C193.61 596.125 192.95 595.709 192.546 595.159C192.143 594.621 191.935 594.022 191.935 593.387C191.935 592.874 192.045 592.421 192.265 592.03C192.485 591.639 192.778 591.297 193.145 591.028C193.512 590.747 193.927 590.539 194.416 590.392C194.905 590.246 195.419 590.185 195.956 590.185ZM170.753 590.209C172.207 590.209 173.271 590.539 173.955 591.199C174.628 591.859 174.97 592.861 174.97 594.206V598.166H174.994C174.994 598.618 175.043 598.985 175.129 599.254C175.227 599.523 175.349 599.816 175.52 600.134C175.581 600.232 175.605 600.329 175.605 600.415C175.605 600.537 175.532 600.659 175.373 600.782L174.603 601.295C174.493 601.368 174.383 601.405 174.285 601.405C174.163 601.405 174.041 601.344 173.919 601.234C173.748 601.051 173.601 600.855 173.479 600.659C173.356 600.452 173.234 600.219 173.1 599.938C172.146 601.063 170.949 601.625 169.506 601.625C168.48 601.625 167.661 601.332 167.062 600.745C166.463 600.158 166.157 599.376 166.157 598.398C166.157 597.359 166.524 596.516 167.27 595.88C168.015 595.245 169.005 594.927 170.264 594.927C170.68 594.927 171.107 594.964 171.56 595.025C172.012 595.086 172.476 595.184 172.965 595.294V594.401C172.965 593.472 172.77 592.825 172.391 592.446C172 592.067 171.34 591.884 170.399 591.884C169.971 591.884 169.531 591.932 169.078 592.042C168.626 592.152 168.186 592.287 167.758 592.458C167.563 592.544 167.416 592.592 167.331 592.617C167.245 592.641 167.184 592.654 167.135 592.654C166.964 592.654 166.878 592.531 166.878 592.275V591.676C166.878 591.48 166.903 591.333 166.964 591.248C167.025 591.162 167.135 591.077 167.306 590.991C167.734 590.771 168.247 590.588 168.846 590.441C169.445 590.282 170.081 590.209 170.753 590.209ZM177.634 590.502C177.867 590.502 178.026 590.539 178.111 590.625C178.209 590.698 178.282 590.869 178.356 591.101L180.409 599.193L182.316 591.101C182.377 590.857 182.45 590.698 182.548 590.625C182.646 590.551 182.817 590.502 183.037 590.502H184.015C184.247 590.502 184.406 590.539 184.504 590.625C184.601 590.698 184.687 590.869 184.736 591.101L186.667 599.291L188.782 591.101C188.855 590.857 188.94 590.698 189.026 590.625C189.124 590.551 189.283 590.502 189.503 590.502H190.639C190.835 590.502 190.945 590.6 190.945 590.808C190.945 590.869 190.933 590.93 190.921 591.003C190.908 591.077 190.884 591.175 190.835 591.309L187.889 600.757C187.816 601.002 187.73 601.161 187.633 601.234C187.535 601.307 187.376 601.356 187.168 601.356H186.117C185.885 601.356 185.726 601.319 185.628 601.234C185.53 601.148 185.445 600.989 185.396 600.745L183.501 592.861L181.619 600.733C181.558 600.977 181.485 601.136 181.387 601.222C181.289 601.307 181.118 601.344 180.898 601.344H179.847C179.627 601.344 179.48 601.307 179.382 601.222C179.284 601.148 179.199 600.977 179.126 600.745L176.253 591.297C176.18 591.052 176.143 590.893 176.143 590.808C176.143 590.612 176.241 590.502 176.437 590.502H177.634ZM170.716 596.381C169.897 596.381 169.298 596.54 168.895 596.87C168.492 597.2 168.296 597.665 168.296 598.276C168.296 598.85 168.443 599.278 168.748 599.572C169.042 599.877 169.47 600.024 170.032 600.024C170.435 600.024 170.851 599.951 171.291 599.804C171.731 599.657 172.122 599.388 172.452 599.022C172.648 598.789 172.794 598.533 172.868 598.239C172.941 597.946 172.99 597.592 172.99 597.176V596.663C172.635 596.577 172.256 596.504 171.865 596.455C171.474 596.406 171.095 596.381 170.716 596.381Z" fill="white"/>
<path d="M40.2512 579.7C45.4337 582.707 51.8262 584.528 58.4387 584.528C62.9 584.528 67.8013 583.599 72.3115 581.692C72.9838 581.387 73.5582 582.132 72.8982 582.621C68.8769 585.591 63.0345 587.168 58.0109 587.168C50.9706 587.168 44.627 584.565 39.8357 580.238C39.4568 579.896 39.799 579.431 40.2512 579.7ZM76.2839 579.394C76.7239 579.944 76.1617 583.721 74.0105 585.53C73.6805 585.811 73.3627 585.665 73.5094 585.298C73.9983 584.088 75.0861 581.362 74.5727 580.714C74.0594 580.054 71.1748 580.397 69.867 580.556C69.4758 580.604 69.4147 580.262 69.7692 580.006C72.0671 578.392 75.8439 578.857 76.2839 579.394ZM70.9915 565.192C71.2604 565.192 71.5415 565.204 71.8104 565.24C72.0915 565.277 72.3482 565.326 72.6049 565.375C72.8493 565.436 73.0816 565.497 73.3016 565.57C73.5216 565.644 73.6927 565.717 73.8149 565.791C73.986 565.888 74.1083 565.986 74.1816 566.096C74.2549 566.194 74.2916 566.328 74.2916 566.499V567.074C74.2916 567.331 74.1938 567.465 74.0105 567.465C73.9127 567.465 73.7538 567.416 73.546 567.318C72.8493 567.001 72.0671 566.842 71.1993 566.842C70.5026 566.842 69.9525 566.952 69.5736 567.184C69.1947 567.416 68.9992 567.771 68.9992 568.272C68.9992 568.614 69.1214 568.907 69.3658 569.14C69.6103 569.372 70.0625 569.604 70.7103 569.812L72.446 570.362C73.326 570.643 73.9616 571.034 74.3405 571.535C74.7194 572.036 74.9027 572.611 74.9027 573.246C74.9027 573.772 74.7927 574.249 74.585 574.664C74.3649 575.08 74.0716 575.446 73.6927 575.74C73.3138 576.045 72.8615 576.265 72.336 576.424C71.7859 576.595 71.2115 576.681 70.5881 576.681C69.9525 576.681 69.3169 576.608 68.7058 576.461C68.0947 576.314 67.618 576.155 67.3002 575.972C67.1046 575.862 66.9702 575.74 66.9213 575.63C66.8724 575.52 66.8479 575.398 66.8479 575.288V574.664C66.8479 574.408 66.9457 574.285 67.1291 574.285C67.2024 574.285 67.2757 574.298 67.3491 574.322C67.4224 574.346 67.5324 574.395 67.6547 574.444C68.0702 574.628 68.5225 574.774 68.9992 574.872C69.4881 574.97 69.9648 575.019 70.4537 575.019C71.2237 575.019 71.8226 574.884 72.2382 574.615C72.6538 574.346 72.8738 573.955 72.8738 573.454C72.8738 573.112 72.7638 572.831 72.5438 572.599C72.3237 572.366 71.9082 572.159 71.3093 571.963L69.537 571.413C68.6447 571.132 67.9847 570.716 67.5813 570.166C67.178 569.628 66.9702 569.03 66.9702 568.394C66.9702 567.881 67.0802 567.428 67.3002 567.037C67.5202 566.646 67.8135 566.304 68.1802 566.035C68.5469 565.754 68.9625 565.546 69.4514 565.399C69.9403 565.253 70.4537 565.192 70.9915 565.192ZM45.7881 565.216C47.2427 565.216 48.306 565.546 48.9905 566.206C49.6628 566.866 50.005 567.868 50.005 569.213V573.173H50.0294C50.0294 573.625 50.0783 573.992 50.1639 574.261C50.2617 574.53 50.3839 574.823 50.555 575.141C50.6161 575.239 50.6406 575.336 50.6406 575.422C50.6406 575.544 50.5672 575.666 50.4083 575.789L49.6383 576.302C49.5283 576.375 49.4183 576.412 49.3205 576.412C49.1983 576.412 49.0761 576.351 48.9538 576.241C48.7827 576.058 48.636 575.862 48.5138 575.666C48.3916 575.459 48.2694 575.226 48.1349 574.945C47.1815 576.07 45.9837 576.632 44.5414 576.632C43.5147 576.632 42.6958 576.339 42.0969 575.752C41.498 575.165 41.1924 574.383 41.1924 573.405C41.1924 572.366 41.5591 571.523 42.3047 570.887C43.0502 570.252 44.0403 569.934 45.2992 569.934C45.7148 569.934 46.1426 569.971 46.5948 570.032C47.0471 570.093 47.5116 570.191 48.0005 570.301V569.408C48.0005 568.48 47.8049 567.832 47.426 567.453C47.0349 567.074 46.3748 566.891 45.4337 566.891C45.0059 566.891 44.5659 566.939 44.1136 567.049C43.6614 567.159 43.2214 567.294 42.7936 567.465C42.598 567.551 42.4513 567.599 42.3658 567.624C42.2802 567.648 42.2191 567.661 42.1702 567.661C41.9991 567.661 41.9135 567.538 41.9135 567.282V566.683C41.9135 566.487 41.938 566.341 41.9991 566.255C42.0602 566.169 42.1702 566.084 42.3413 565.998C42.7691 565.778 43.2825 565.595 43.8814 565.448C44.4803 565.289 45.1159 565.216 45.7881 565.216ZM52.6696 565.509C52.9018 565.509 53.0607 565.546 53.1462 565.632C53.244 565.705 53.3174 565.876 53.3907 566.108L55.4441 574.2L57.3509 566.108C57.412 565.864 57.4853 565.705 57.5831 565.632C57.6809 565.558 57.852 565.509 58.072 565.509H59.0498C59.2821 565.509 59.441 565.546 59.5387 565.632C59.6365 565.705 59.7221 565.876 59.771 566.108L61.7022 574.298L63.8167 566.108C63.89 565.864 63.9756 565.705 64.0612 565.632C64.1589 565.558 64.3178 565.509 64.5379 565.509H65.6746C65.8701 565.509 65.9801 565.607 65.9801 565.815C65.9801 565.876 65.9679 565.937 65.9557 566.011C65.9435 566.084 65.919 566.182 65.8701 566.316L62.9244 575.764C62.8511 576.009 62.7656 576.168 62.6678 576.241C62.57 576.314 62.4111 576.363 62.2033 576.363H61.1521C60.9199 576.363 60.761 576.327 60.6632 576.241C60.5655 576.155 60.4799 575.997 60.431 575.752L58.5365 567.868L56.6542 575.74C56.5931 575.984 56.5197 576.143 56.4219 576.229C56.3242 576.314 56.153 576.351 55.933 576.351H54.8819C54.6619 576.351 54.5152 576.314 54.4174 576.229C54.3196 576.155 54.2341 575.984 54.1607 575.752L51.2884 566.304C51.215 566.059 51.1784 565.901 51.1784 565.815C51.1784 565.619 51.2762 565.509 51.4717 565.509H52.6696ZM45.7515 571.389C44.9325 571.389 44.3336 571.547 43.9303 571.877C43.5269 572.207 43.3314 572.672 43.3314 573.283C43.3314 573.858 43.478 574.285 43.7836 574.579C44.077 574.884 44.5048 575.031 45.067 575.031C45.4704 575.031 45.8859 574.958 46.3259 574.811C46.766 574.664 47.1571 574.395 47.4871 574.029C47.6827 573.796 47.8293 573.54 47.9027 573.246C47.976 572.953 48.0249 572.599 48.0249 572.183V571.67C47.6704 571.584 47.2915 571.511 46.9004 571.462C46.5093 571.413 46.1304 571.389 45.7515 571.389Z" fill="white"/>
<path d="M99.8508 616.229C105.033 619.236 111.426 621.057 118.038 621.057C122.5 621.057 127.401 620.128 131.911 618.222C132.583 617.916 133.158 618.662 132.498 619.151C128.477 622.121 122.634 623.697 117.611 623.697C110.57 623.697 104.227 621.094 99.4353 616.767C99.0564 616.425 99.3986 615.96 99.8508 616.229ZM135.884 615.924C136.324 616.474 135.761 620.251 133.61 622.06C133.28 622.341 132.962 622.194 133.109 621.827C133.598 620.617 134.686 617.892 134.172 617.244C133.659 616.584 130.774 616.926 129.467 617.085C129.075 617.134 129.014 616.792 129.369 616.535C131.667 614.922 135.444 615.386 135.884 615.924ZM130.591 601.721C130.86 601.721 131.141 601.733 131.41 601.77C131.691 601.806 131.948 601.855 132.204 601.904C132.449 601.965 132.681 602.027 132.901 602.1C133.121 602.173 133.292 602.247 133.415 602.32C133.586 602.418 133.708 602.515 133.781 602.625C133.855 602.723 133.891 602.858 133.891 603.029V603.603C133.891 603.86 133.793 603.994 133.61 603.994C133.512 603.994 133.353 603.945 133.146 603.848C132.449 603.53 131.667 603.371 130.799 603.371C130.102 603.371 129.552 603.481 129.173 603.713C128.794 603.945 128.599 604.3 128.599 604.801C128.599 605.143 128.721 605.437 128.965 605.669C129.21 605.901 129.662 606.133 130.31 606.341L132.046 606.891C132.926 607.172 133.561 607.563 133.94 608.065C134.319 608.566 134.502 609.14 134.502 609.776C134.502 610.301 134.392 610.778 134.185 611.194C133.965 611.609 133.671 611.976 133.292 612.269C132.913 612.575 132.461 612.795 131.936 612.954C131.386 613.125 130.811 613.21 130.188 613.21C129.552 613.21 128.917 613.137 128.305 612.99C127.694 612.844 127.218 612.685 126.9 612.501C126.704 612.391 126.57 612.269 126.521 612.159C126.472 612.049 126.448 611.927 126.448 611.817V611.194C126.448 610.937 126.545 610.815 126.729 610.815C126.802 610.815 126.875 610.827 126.949 610.851C127.022 610.876 127.132 610.925 127.254 610.974C127.67 611.157 128.122 611.304 128.599 611.401C129.088 611.499 129.564 611.548 130.053 611.548C130.823 611.548 131.422 611.414 131.838 611.145C132.253 610.876 132.473 610.485 132.473 609.984C132.473 609.641 132.363 609.36 132.143 609.128C131.923 608.896 131.508 608.688 130.909 608.492L129.137 607.942C128.244 607.661 127.584 607.246 127.181 606.696C126.778 606.158 126.57 605.559 126.57 604.923C126.57 604.41 126.68 603.958 126.9 603.567C127.12 603.175 127.413 602.833 127.78 602.564C128.147 602.283 128.562 602.075 129.051 601.929C129.54 601.782 130.053 601.721 130.591 601.721ZM105.388 601.745C106.842 601.745 107.906 602.075 108.59 602.735C109.262 603.395 109.605 604.398 109.605 605.742V609.702H109.629C109.629 610.155 109.678 610.521 109.763 610.79C109.861 611.059 109.984 611.352 110.155 611.67C110.216 611.768 110.24 611.866 110.24 611.951C110.24 612.074 110.167 612.196 110.008 612.318L109.238 612.831C109.128 612.905 109.018 612.941 108.92 612.941C108.798 612.941 108.676 612.88 108.553 612.77C108.382 612.587 108.236 612.391 108.113 612.196C107.991 611.988 107.869 611.756 107.735 611.475C106.781 612.599 105.583 613.161 104.141 613.161C103.114 613.161 102.295 612.868 101.696 612.281C101.098 611.695 100.792 610.912 100.792 609.935C100.792 608.896 101.159 608.052 101.904 607.417C102.65 606.781 103.64 606.463 104.899 606.463C105.314 606.463 105.742 606.5 106.194 606.561C106.647 606.622 107.111 606.72 107.6 606.83V605.938C107.6 605.009 107.405 604.361 107.026 603.982C106.634 603.603 105.974 603.42 105.033 603.42C104.605 603.42 104.165 603.469 103.713 603.579C103.261 603.689 102.821 603.823 102.393 603.994C102.198 604.08 102.051 604.129 101.965 604.153C101.88 604.178 101.819 604.19 101.77 604.19C101.599 604.19 101.513 604.068 101.513 603.811V603.212C101.513 603.017 101.538 602.87 101.599 602.784C101.66 602.699 101.77 602.613 101.941 602.528C102.369 602.308 102.882 602.124 103.481 601.978C104.08 601.819 104.716 601.745 105.388 601.745ZM112.269 602.039C112.501 602.039 112.66 602.075 112.746 602.161C112.844 602.234 112.917 602.405 112.99 602.638L115.044 610.729L116.95 602.638C117.012 602.393 117.085 602.234 117.183 602.161C117.28 602.088 117.452 602.039 117.672 602.039H118.649C118.882 602.039 119.041 602.075 119.138 602.161C119.236 602.234 119.322 602.405 119.371 602.638L121.302 610.827L123.416 602.638C123.49 602.393 123.575 602.234 123.661 602.161C123.759 602.088 123.917 602.039 124.137 602.039H125.274C125.47 602.039 125.58 602.137 125.58 602.344C125.58 602.405 125.568 602.467 125.555 602.54C125.543 602.613 125.519 602.711 125.47 602.845L122.524 612.294C122.451 612.538 122.365 612.697 122.267 612.77C122.17 612.844 122.011 612.893 121.803 612.893H120.752C120.52 612.893 120.361 612.856 120.263 612.77C120.165 612.685 120.08 612.526 120.031 612.281L118.136 604.398L116.254 612.269C116.193 612.514 116.119 612.673 116.022 612.758C115.924 612.844 115.753 612.88 115.533 612.88H114.481C114.261 612.88 114.115 612.844 114.017 612.758C113.919 612.685 113.834 612.514 113.76 612.281L110.888 602.833C110.815 602.589 110.778 602.43 110.778 602.344C110.778 602.149 110.876 602.039 111.071 602.039H112.269ZM105.351 607.918C104.532 607.918 103.933 608.077 103.53 608.407C103.127 608.737 102.931 609.201 102.931 609.812C102.931 610.387 103.078 610.815 103.383 611.108C103.677 611.414 104.104 611.56 104.667 611.56C105.07 611.56 105.486 611.487 105.926 611.34C106.366 611.194 106.757 610.925 107.087 610.558C107.282 610.326 107.429 610.069 107.502 609.776C107.576 609.482 107.625 609.128 107.625 608.712V608.199C107.27 608.113 106.891 608.04 106.5 607.991C106.109 607.942 105.73 607.918 105.351 607.918Z" fill="white"/>
</g>
<defs>
<clipPath id="clip0_266_6011">
<rect width="644.166" height="669.005" fill="white"/>
</clipPath>
</defs>
</svg>
