<svg width="58" height="58" viewBox="0 0 58 58" fill="none" xmlns="http://www.w3.org/2000/svg">
<path d="M36.1088 32.766L30.2777 32.7475L27.3789 27.6893L30.3077 22.6484L36.1388 22.6669L39.0376 27.7251L36.1088 32.766Z" fill="white"/>
<path d="M26.8959 38.0541L21.0648 38.0357L18.166 32.9775L21.0948 27.9366L26.9259 27.955L29.8247 33.0132L26.8959 38.0541Z" fill="white"/>
<path d="M36.0551 43.368L30.224 43.3495L27.3252 38.2913L30.254 33.2504L36.085 33.2689L38.9838 38.3271L36.0551 43.368Z" fill="white"/>
<path d="M26.9476 27.5262L21.1166 27.5077L18.2178 22.4495L21.1466 17.4086L26.9776 17.4271L29.8764 22.4853L26.9476 27.5262Z" fill="white"/>
<path d="M36.1029 22.2242L30.2718 22.2057L27.373 17.1475L30.3018 12.1066L36.1329 12.1251L39.0317 17.1833L36.1029 22.2242Z" fill="white"/>
<path d="M33.2072 18.3256C33.8443 18.3256 34.3608 17.8092 34.3608 17.1721C34.3608 16.535 33.8443 16.0186 33.2072 16.0186C32.5702 16.0186 32.0537 16.535 32.0537 17.1721C32.0537 17.8092 32.5702 18.3256 33.2072 18.3256Z" fill="white"/>
<path d="M24.0481 23.6182C24.6851 23.6182 25.2016 23.1018 25.2016 22.4647C25.2016 21.8276 24.6851 21.3112 24.0481 21.3112C23.411 21.3112 22.8945 21.8276 22.8945 22.4647C22.8945 23.1018 23.411 23.6182 24.0481 23.6182Z" fill="white"/>
<path d="M24.0002 34.1524C24.6373 34.1524 25.1537 33.6359 25.1537 32.9989C25.1537 32.3618 24.6373 31.8453 24.0002 31.8453C23.3631 31.8453 22.8467 32.3618 22.8467 32.9989C22.8467 33.6359 23.3631 34.1524 24.0002 34.1524Z" fill="white"/>
<path d="M33.1535 39.4632C33.7906 39.4632 34.307 38.9468 34.307 38.3097C34.307 37.6726 33.7906 37.1562 33.1535 37.1562C32.5165 37.1562 32 37.6726 32 38.3097C32 38.9468 32.5165 39.4632 33.1535 39.4632Z" fill="white"/>
<path d="M32.6504 17.4171L24.6296 22.012M24.0117 23.154L24.042 32.3984M24.6478 33.3828L32.5958 38.108" stroke="white" stroke-width="1.4419"/>
<path d="M33.2102 28.8627C33.8472 28.8627 34.3637 28.3463 34.3637 27.7092C34.3637 27.0721 33.8472 26.5557 33.2102 26.5557C32.5731 26.5557 32.0566 27.0721 32.0566 27.7092C32.0566 28.3463 32.5731 28.8627 33.2102 28.8627Z" fill="white"/>
<path d="M33.1803 17.7921L33.2106 27.0366M33.2257 28.3875L33.256 37.632M32.6623 28.0695L24.6416 32.6644M24.6779 22.8808L32.626 27.606" stroke="white" stroke-width="1.4419"/>
</svg>
